<svg width="400" height="401" viewBox="0 0 400 401" fill="none" xmlns="http://www.w3.org/2000/svg">
<path d="M230.254 296.807L230.595 394.03L200.928 301.427L199.977 298.458L199.024 301.426L169.289 394.008L169.698 296.784L169.711 293.666L167.887 296.194L111.005 375.05L141.422 282.691L142.397 279.73L139.882 281.571L61.401 339.007L118.892 260.585L120.736 258.07L117.774 259.044L25.3887 289.409L104.303 232.579L106.833 230.758L103.716 230.768L6.46549 231.083L99.0816 201.416L102.052 200.465L99.0821 199.512L6.4977 169.803L103.739 170.208L106.858 170.221L104.328 168.397L25.4572 111.521L117.822 141.932L120.783 142.907L118.941 140.391L61.4926 61.9205L139.93 119.381L142.444 121.222L141.471 118.262L111.123 25.9075L167.935 104.805L169.756 107.335L169.746 104.217L169.428 6.97002L199.072 99.5727L200.022 102.543L200.976 99.5737L230.713 7.0103L230.327 104.217L230.314 107.333L232.137 104.806L289.017 25.9765L258.578 118.309L257.602 121.27L260.118 119.429L338.605 62.0113L281.132 140.439L279.289 142.954L282.25 141.98L374.613 111.616L295.721 168.445L293.191 170.267L296.309 170.256L393.531 169.918L300.943 199.584L297.974 200.535L300.942 201.488L393.513 231.223L296.285 230.84L293.167 230.828L295.696 232.651L374.563 289.501L282.203 259.092L279.242 258.118L281.083 260.633L338.507 339.1L260.094 281.619L257.58 279.776L258.553 282.738L288.903 375.122L232.065 296.219L230.243 293.689L230.254 296.807Z" fill="black" stroke="white" stroke-width="2"/>
<path d="M223.998 352.56L199.984 277.652L175.914 352.542L176.245 273.896L130.203 337.681L154.824 262.973L91.2949 309.435L137.834 245.997L63.0516 270.559L126.93 224.589L48.2129 224.844L123.179 200.848L48.2313 176.814L126.948 177.142L63.1069 131.136L137.87 155.735L91.3685 92.2598L154.861 138.74L130.295 64.0325L176.282 127.854L176.025 49.1895L200.02 124.098L224.09 49.2259L223.777 127.854L269.819 64.0872L245.18 138.777L308.709 92.3328L262.189 155.771L336.952 131.209L273.092 177.179L351.791 176.905L276.843 200.902L351.773 224.954L273.074 224.644L336.915 270.632L262.152 246.033L308.635 309.508L245.162 263.01L269.727 337.735L223.722 273.914L223.998 352.56Z" fill="#F9B233"/>
<path d="M217.07 256.605L217.257 310.13L200.938 259.148L199.987 256.177L199.034 259.147L182.678 310.118L182.902 256.591L182.916 253.471L181.091 256.002L149.801 299.418L166.534 248.566L167.508 245.604L164.993 247.447L121.822 279.069L153.448 235.892L155.29 233.377L152.329 234.351L101.506 251.07L144.919 219.779L147.446 217.958L144.331 217.968L90.8293 218.142L141.783 201.806L144.75 200.855L141.783 199.902L90.8513 183.544L144.345 183.768L147.461 183.781L144.934 181.957L101.544 150.641L152.356 167.384L155.316 168.36L153.476 165.844L121.873 122.639L165.021 154.275L167.534 156.118L166.562 153.156L149.868 102.31L181.119 145.747L182.941 148.279L182.931 145.159L182.756 91.6198L199.062 142.601L200.012 145.574L200.966 142.602L217.324 91.6399L217.112 145.159L217.099 148.277L218.923 145.747L250.21 102.348L233.466 153.183L232.491 156.145L235.007 154.303L278.184 122.689L246.566 165.872L244.725 168.387L247.685 167.412L298.495 150.694L255.094 181.985L252.567 183.807L255.683 183.796L309.167 183.61L258.231 199.944L255.266 200.895L258.231 201.848L309.16 218.221L255.669 218.01L252.553 217.997L255.08 219.821L298.466 251.122L247.658 234.379L244.699 233.404L246.538 235.919L278.127 279.121L234.994 247.475L232.479 245.63L233.452 248.593L250.148 299.459L218.881 256.017L217.059 253.485L217.07 256.605Z" fill="black" stroke="white" stroke-width="2"/>
<path d="M214.23 290.387L199.988 245.997L185.714 290.376L185.91 243.771L158.605 281.569L173.206 237.298L135.53 264.831L163.13 227.238L118.781 241.793L156.664 214.552L109.98 214.703L154.439 200.483L109.991 186.241L156.675 186.435L118.813 159.172L163.152 173.749L135.574 136.135L173.228 163.678L158.659 119.407L185.932 157.227L185.779 110.611L200.01 155.001L214.285 110.633L214.099 157.227L241.405 119.44L226.792 163.7L264.468 136.178L236.879 173.771L281.218 159.216L243.346 186.457L290.018 186.295L245.57 200.515L290.007 214.768L243.335 214.584L281.196 241.836L236.857 227.259L264.425 264.874L226.781 237.32L241.35 281.602L214.066 243.781L214.23 290.387Z" fill="#F9B233"/>
<path d="M209.334 234.436L209.436 263.661L200.567 235.828L199.615 232.842L198.661 235.827L189.771 263.654L189.893 234.429L189.906 231.297L188.081 233.842L171.07 257.549L180.169 229.774L181.141 226.807L178.627 228.657L155.152 245.928L172.354 222.339L174.189 219.823L171.232 220.8L143.587 229.935L167.208 212.834L169.722 211.014L166.619 211.024L137.505 211.119L165.234 202.189L168.188 201.238L165.235 200.286L137.521 191.346L166.626 191.468L169.731 191.481L167.217 189.658L143.607 172.542L171.249 181.691L174.203 182.669L172.371 180.153L155.18 156.547L178.643 173.826L181.156 175.677L180.186 172.71L171.109 144.94L188.097 168.657L189.92 171.203L189.91 168.072L189.815 138.839L198.678 166.672L199.629 169.659L200.583 166.673L209.475 138.847L209.359 168.071L209.347 171.2L211.172 168.658L228.179 144.962L219.075 172.726L218.102 175.693L220.618 173.843L244.098 156.575L226.898 180.169L225.065 182.685L228.02 181.708L255.659 172.573L232.044 189.674L229.53 191.495L232.634 191.484L261.736 191.382L234.018 200.31L231.067 201.261L234.017 202.214L261.734 211.164L232.626 211.049L229.521 211.036L232.036 212.858L255.641 229.964L228.004 220.817L225.05 219.839L226.881 222.355L244.063 245.958L220.61 228.674L218.096 226.821L219.066 229.79L228.146 257.573L211.147 233.851L209.323 231.305L209.334 234.436Z" fill="black" stroke="white" stroke-width="2"/>
<path d="M206.964 244.697L199.992 223.057L193.004 244.692L193.1 221.972L179.733 240.399L186.881 218.816L168.437 232.239L181.949 213.912L160.238 221.008L178.783 207.728L155.93 207.801L177.694 200.869L155.935 193.926L178.788 194.021L160.254 180.73L181.959 187.836L168.459 169.499L186.892 182.927L179.76 161.345L193.111 179.782L193.036 157.057L200.003 178.697L206.991 157.067L206.9 179.782L220.267 161.36L213.114 182.937L231.558 169.52L218.052 187.847L239.757 180.751L221.217 194.031L244.065 193.952L222.306 200.885L244.06 207.833L221.212 207.743L239.747 221.029L218.041 213.923L231.536 232.26L213.108 218.827L220.24 240.414L206.884 221.977L206.964 244.697Z" fill="white"/>
</svg>
