<svg width="264" height="43" viewBox="0 0 264 43" fill="none" xmlns="http://www.w3.org/2000/svg">
<path d="M110.264 11.1001V2.24199C110.264 1.00645 109.157 7.33572e-05 107.797 7.33572e-05H2.46638C1.10713 -0.00989073 0 0.996482 0 2.24199V11.1001V17.5568V39.9461C0 41.2315 1.15098 42.2677 2.55407 42.2677C3.96813 42.2677 5.10815 41.2215 5.10815 39.9461V17.5568H15.0066V39.9461C15.0066 41.2315 16.1575 42.2677 17.5606 42.2677C18.9747 42.2677 20.1147 41.2215 20.1147 39.9461V17.5568H30.0131V39.9461C30.0131 41.2315 31.1641 42.2677 32.5672 42.2677C33.9812 42.2677 35.1213 41.2215 35.1213 39.9461V17.5568H45.0197V39.9461C45.0197 41.2315 46.1706 42.2677 47.5737 42.2677C48.9878 42.2677 50.1278 41.2215 50.1278 39.9461V17.5568H60.0262V39.9461C60.0262 41.2315 61.1772 42.2677 62.5803 42.2677C63.9944 42.2677 65.1344 41.2215 65.1344 39.9461V17.5568H75.0328V39.9461C75.0328 41.2315 76.1838 42.2677 77.5868 42.2677C79.0009 42.2677 80.1409 41.2215 80.1409 39.9461V17.5568H90.0393V39.9461C90.0393 41.2315 91.1903 42.2677 92.5934 42.2677C94.0075 42.2677 95.1475 41.2215 95.1475 39.9461V17.5568H105.046V39.9461C105.046 41.2315 106.197 42.2677 107.6 42.2677C109.014 42.2677 110.154 41.2215 110.154 39.9461L110.264 11.1001ZM39.4182 13.0829C36.4586 13.0829 34.058 10.9008 34.058 8.21048C34.058 5.52018 36.4586 3.33804 39.4182 3.33804C42.3779 3.33804 44.7785 5.52018 44.7785 8.21048C44.7785 10.9008 42.3779 13.0829 39.4182 13.0829ZM68.2036 11.9072C66.5484 11.9072 65.2001 10.6816 65.2001 9.177C65.2001 7.67242 66.5484 6.44684 68.2036 6.44684C69.8589 6.44684 71.2071 7.67242 71.2071 9.177C71.2071 10.6816 69.8589 11.9072 68.2036 11.9072Z" fill="white"/>
<path d="M120.023 2.28849C120.193 1.81539 120.443 1.41953 120.773 1.0816C121.102 0.743668 121.492 0.492634 121.961 0.299531C122.431 0.116083 122.95 0.0195312 123.53 0.0195312C124.129 0.0195312 124.659 0.116083 125.128 0.299531C125.598 0.492634 125.987 0.743668 126.307 1.0816C126.627 1.41953 126.877 1.82504 127.056 2.28849C127.226 2.74228 127.306 3.25401 127.306 3.80435C127.306 4.3547 127.226 4.86642 127.056 5.32021C126.877 5.79331 126.627 6.18917 126.307 6.5271C125.987 6.84572 125.598 7.11607 125.128 7.30917C124.659 7.50227 124.129 7.58917 123.53 7.58917C122.95 7.58917 122.431 7.49262 121.961 7.30917C121.492 7.12572 121.102 6.85538 120.773 6.5271C120.443 6.18917 120.193 5.79331 120.023 5.32021C119.854 4.86642 119.764 4.3547 119.764 3.80435C119.764 3.25401 119.854 2.74228 120.023 2.28849ZM121.852 4.59607C121.902 4.86642 122.001 5.1078 122.161 5.31055C122.301 5.52297 122.481 5.69676 122.701 5.82228C122.921 5.9478 123.2 6.00573 123.53 6.00573C123.88 6.00573 124.169 5.93814 124.389 5.82228C124.609 5.69676 124.789 5.52297 124.928 5.32987C125.068 5.12711 125.168 4.90504 125.218 4.63469C125.268 4.36435 125.298 4.09401 125.298 3.81401C125.298 3.53401 125.268 3.26366 125.218 2.99332C125.158 2.72297 125.068 2.4816 124.928 2.27884C124.789 2.07608 124.609 1.91194 124.389 1.78642C124.169 1.66091 123.88 1.61263 123.53 1.61263C123.2 1.61263 122.921 1.68022 122.701 1.79608C122.481 1.9216 122.301 2.09539 122.161 2.28849C122.011 2.50091 121.912 2.73263 121.852 3.00297C121.792 3.27332 121.752 3.54366 121.752 3.80435C121.752 4.06504 121.802 4.34504 121.852 4.59607Z" fill="white"/>
<path d="M139.276 2.25953C139.216 2.1147 139.137 1.98918 139.037 1.89263C138.927 1.78642 138.797 1.71884 138.657 1.66091C138.507 1.62229 138.327 1.59332 138.118 1.59332C137.798 1.59332 137.548 1.66091 137.358 1.80573C137.159 1.95056 137.009 2.12435 136.909 2.34642C136.799 2.57815 136.739 2.81953 136.699 3.07056C136.669 3.32159 136.649 3.56297 136.649 3.7947C136.649 4.02642 136.659 4.27745 136.689 4.52849C136.719 4.79883 136.769 5.0209 136.879 5.24297C136.979 5.45538 137.119 5.64849 137.318 5.78366C137.508 5.92848 137.778 5.99607 138.108 5.99607C138.327 5.99607 138.527 5.95745 138.687 5.8609C138.837 5.78366 138.977 5.67745 139.087 5.55193C139.196 5.41676 139.276 5.28159 139.336 5.13676C139.376 5.00159 139.406 4.86642 139.406 4.75056H141.404C141.404 4.87607 141.394 5.0209 141.344 5.20435C141.294 5.40711 141.224 5.59056 141.125 5.81262C141.025 6.01538 140.885 6.2278 140.735 6.44021C140.555 6.65262 140.355 6.84573 140.106 7.00021C139.856 7.174 139.576 7.30917 139.246 7.41538C138.917 7.52159 138.527 7.57952 138.098 7.57952C137.538 7.57952 137.039 7.50228 136.609 7.33814C136.18 7.16434 135.82 6.92297 135.53 6.60435C135.24 6.28573 135.021 5.88986 134.861 5.40711C134.711 4.934 134.621 4.40297 134.621 3.7947C134.621 3.17677 134.701 2.63608 134.871 2.17263C135.041 1.71884 135.27 1.31332 135.58 0.994702C135.89 0.676082 136.249 0.434703 136.679 0.270565C137.099 0.0967725 137.578 0.0195312 138.098 0.0195312C138.317 0.0195312 138.557 0.0484967 138.807 0.0774622C139.047 0.106428 139.276 0.174014 139.516 0.251255C139.756 0.347806 139.976 0.454013 140.195 0.589185C140.405 0.724357 140.595 0.89815 140.775 1.10091C140.945 1.30367 141.085 1.54505 141.194 1.81539C141.304 2.08573 141.374 2.40435 141.404 2.77125H139.406C139.386 2.56849 139.346 2.3947 139.276 2.25953Z" fill="white"/>
<path d="M153.072 2.71162C153.531 2.71162 153.951 2.75024 154.31 2.84679C154.66 2.94334 154.96 3.08817 155.209 3.27162C155.459 3.45507 155.649 3.69645 155.779 3.99576C155.899 4.29507 155.969 4.64265 155.969 5.03851C155.969 5.40541 155.919 5.71437 155.819 5.96541C155.709 6.23575 155.569 6.44816 155.399 6.6123C155.229 6.79575 155.04 6.92127 154.83 7.02747C154.62 7.12402 154.41 7.20127 154.22 7.23989C154.031 7.29782 153.831 7.33644 153.661 7.34609C153.491 7.35575 153.351 7.35575 153.271 7.35575H149.186V0.210938H151.104V2.69231H153.072V2.71162ZM153.182 5.93644C153.321 5.92679 153.461 5.86885 153.581 5.80127C153.691 5.73368 153.791 5.63713 153.861 5.52127C153.941 5.39575 153.971 5.24127 153.971 5.04817C153.971 4.85506 153.941 4.71024 153.861 4.57506C153.791 4.44955 153.691 4.36265 153.551 4.29507C153.431 4.22748 153.271 4.1792 153.112 4.15024C152.942 4.12127 152.762 4.11162 152.572 4.11162H151.114V5.97506H152.742C152.892 5.97506 153.032 5.96541 153.182 5.93644Z" fill="white"/>
<path d="M167.797 5.41724L169.016 0.232422H171.823V7.37724H170.015V1.63242H169.985L168.596 7.37724H166.848L165.459 1.63242H165.429V7.37724H163.621V0.232422H166.508L167.757 5.41724H167.797Z" fill="white"/>
<path d="M182.001 4.63517L184.698 0.232422H186.706V7.37724H184.788V3.07104H184.758L182.151 7.37724H180.053V0.232422H181.971V4.63517H182.001Z" fill="white"/>
<path d="M199.673 2.81035V0.232422H201.591V7.37724H199.673V4.31655H196.856V7.37724H194.938V0.232422H196.856V2.81035H199.673Z" fill="white"/>
<path d="M209.643 2.28849C209.813 1.81539 210.062 1.41953 210.392 1.0816C210.722 0.743668 211.111 0.492634 211.581 0.299531C212.05 0.116083 212.57 0.0195312 213.149 0.0195312C213.749 0.0195312 214.278 0.116083 214.748 0.299531C215.217 0.492634 215.607 0.743668 215.926 1.0816C216.246 1.41953 216.496 1.82504 216.676 2.28849C216.846 2.74228 216.925 3.25401 216.925 3.80435C216.925 4.3547 216.846 4.86642 216.676 5.32021C216.496 5.79331 216.246 6.18917 215.926 6.5271C215.607 6.84572 215.217 7.11607 214.748 7.30917C214.278 7.50227 213.749 7.58917 213.149 7.58917C212.57 7.58917 212.05 7.49262 211.581 7.30917C211.111 7.12572 210.722 6.85538 210.392 6.5271C210.062 6.18917 209.813 5.79331 209.643 5.32021C209.473 4.86642 209.373 4.3547 209.373 3.80435C209.373 3.25401 209.473 2.74228 209.643 2.28849ZM211.471 4.59607C211.521 4.86642 211.621 5.1078 211.781 5.31055C211.92 5.52297 212.1 5.69676 212.32 5.82228C212.54 5.9478 212.82 6.00573 213.149 6.00573C213.499 6.00573 213.789 5.93814 214.008 5.82228C214.228 5.69676 214.408 5.52297 214.548 5.32987C214.688 5.12711 214.788 4.90504 214.838 4.63469C214.887 4.36435 214.917 4.09401 214.917 3.81401C214.917 3.53401 214.887 3.26366 214.838 2.99332C214.778 2.72297 214.688 2.4816 214.548 2.27884C214.408 2.07608 214.228 1.91194 214.008 1.78642C213.789 1.66091 213.499 1.61263 213.149 1.61263C212.82 1.61263 212.54 1.68022 212.32 1.79608C212.1 1.9216 211.92 2.09539 211.781 2.28849C211.631 2.50091 211.531 2.73263 211.471 3.00297C211.411 3.27332 211.371 3.54366 211.371 3.80435C211.371 4.06504 211.421 4.34504 211.471 4.59607Z" fill="white"/>
<path d="M235.145 0.232422L232.658 3.53448L235.265 7.37724H232.947L230.919 4.34552H230.56V7.37724H228.642V4.34552H228.222L226.134 7.37724H223.896L226.524 3.53448L224.066 0.232422H226.264L228.272 3.06138H228.632V0.232422H230.55V3.06138H230.909L232.937 0.232422H235.145Z" fill="white"/>
<path d="M247.426 0.230358H249.983L246.926 3.19449L250.103 7.36551H247.605L245.438 4.34345L244.658 5.10621V7.36551H242.74V0.220703H244.658V2.9338L247.426 0.230358Z" fill="white"/>
<path d="M263.59 6.48827C263.6 6.62344 263.65 6.7393 263.69 6.80689C263.73 6.90344 263.77 6.95171 263.83 6.99034C263.88 7.02896 263.93 7.05792 264 7.06758V7.36689H261.872L261.762 7.02896C261.712 6.89378 261.692 6.72965 261.692 6.53654L261.262 6.95171C261.113 7.07723 260.963 7.18344 260.773 7.27034C260.593 7.36689 260.393 7.44413 260.164 7.50206C259.924 7.55999 259.654 7.5793 259.334 7.5793C259.005 7.5793 258.695 7.54068 258.415 7.44413C258.136 7.34758 257.906 7.20275 257.696 7.02896C257.506 6.84551 257.336 6.61378 257.226 6.33378C257.117 6.06344 257.057 5.74482 257.057 5.37792C257.057 5.07861 257.097 4.81792 257.196 4.55724C257.296 4.3062 257.436 4.08413 257.596 3.90068C257.776 3.71724 257.986 3.5531 258.235 3.42758C258.485 3.29241 258.765 3.21517 259.085 3.17655L260.953 2.91586C261.023 2.9062 261.093 2.9062 261.172 2.87724C261.252 2.86758 261.322 2.83862 261.392 2.78069C261.462 2.74207 261.522 2.68413 261.562 2.61655C261.602 2.53931 261.632 2.44276 261.632 2.31724C261.632 2.19172 261.602 2.08551 261.572 1.99862C261.532 1.89241 261.462 1.81517 261.382 1.74758C261.282 1.67034 261.172 1.61241 261.023 1.57379C260.873 1.53517 260.673 1.51586 260.453 1.51586C260.183 1.51586 259.994 1.54483 259.844 1.58345C259.674 1.64138 259.554 1.71862 259.464 1.79586C259.364 1.89241 259.294 1.99862 259.254 2.10482L259.175 2.49103H257.256C257.256 2.41379 257.266 2.28827 257.296 2.12414C257.326 1.97931 257.376 1.80551 257.466 1.61241C257.536 1.43862 257.656 1.24552 257.796 1.06207C257.936 0.87862 258.116 0.695171 258.365 0.540689C258.585 0.395862 258.875 0.260689 259.214 0.164138C259.544 0.0675861 259.934 0.0193103 260.403 0C261.053 0 261.592 0.0675861 262.012 0.183448C262.411 0.31862 262.731 0.492413 262.971 0.695171C263.19 0.907585 263.35 1.13931 263.43 1.39034C263.5 1.64138 263.54 1.90207 263.54 2.1531V5.93792C263.55 6.1793 263.56 6.3531 263.59 6.48827ZM261.282 4.04551C261.162 4.10344 261.003 4.15172 260.813 4.18068L260.303 4.27724C260.084 4.31586 259.884 4.35448 259.724 4.41241C259.554 4.47034 259.414 4.53793 259.304 4.61517C259.194 4.71172 259.115 4.81792 259.055 4.93379C258.995 5.0593 258.975 5.20413 258.975 5.38758C258.975 5.53241 259.005 5.66758 259.045 5.77379C259.095 5.8993 259.165 5.97654 259.264 6.05379C259.344 6.12137 259.444 6.18896 259.554 6.21792C259.674 6.25654 259.804 6.27585 259.944 6.27585C260.014 6.27585 260.114 6.2662 260.223 6.24689C260.333 6.23723 260.443 6.20827 260.583 6.16965C260.703 6.11172 260.833 6.06344 260.963 5.97654C261.083 5.90896 261.202 5.80275 261.292 5.67723C261.402 5.55172 261.482 5.40689 261.542 5.22344C261.592 5.04965 261.642 4.84689 261.642 4.60551V3.88137C261.522 3.94896 261.392 4.00689 261.282 4.04551Z" fill="white"/>
<path d="M124.38 18.3748C124.32 18.2299 124.24 18.1044 124.14 18.0079C124.03 17.9017 123.9 17.8341 123.76 17.7761C123.61 17.7375 123.431 17.7086 123.221 17.7086C122.901 17.7086 122.651 17.7761 122.452 17.921C122.262 18.0658 122.102 18.2396 122.012 18.4617C121.902 18.6934 121.842 18.9348 121.802 19.1858C121.772 19.4368 121.742 19.6782 121.742 19.9099C121.742 20.1417 121.752 20.3927 121.782 20.6437C121.812 20.9141 121.862 21.1361 121.972 21.3582C122.072 21.5706 122.212 21.7637 122.412 21.8989C122.601 22.0437 122.871 22.1113 123.201 22.1113C123.421 22.1113 123.62 22.0727 123.78 21.9761C123.93 21.8989 124.07 21.7927 124.18 21.6672C124.29 21.532 124.37 21.3968 124.43 21.252C124.47 21.1168 124.5 20.9816 124.5 20.8658H126.498C126.498 20.9913 126.488 21.1361 126.448 21.3196C126.388 21.5223 126.318 21.7058 126.228 21.9279C126.128 22.1306 125.988 22.343 125.838 22.5554C125.658 22.7679 125.459 22.961 125.219 23.1154C124.969 23.2892 124.689 23.4244 124.36 23.5306C124.03 23.6368 123.64 23.6947 123.211 23.6947C122.651 23.6947 122.152 23.6175 121.722 23.4534C121.293 23.2796 120.933 23.0382 120.643 22.7196C120.354 22.401 120.134 22.0051 119.974 21.5223C119.824 21.0492 119.734 20.5182 119.734 19.9099C119.734 19.292 119.814 18.7513 119.984 18.2879C120.154 17.8341 120.384 17.4286 120.693 17.1099C121.003 16.7913 121.363 16.5499 121.792 16.3858C122.212 16.212 122.691 16.1348 123.211 16.1348C123.431 16.1348 123.67 16.1637 123.92 16.1927C124.16 16.2217 124.39 16.2892 124.629 16.3665C124.869 16.463 125.089 16.5692 125.309 16.7044C125.519 16.8396 125.708 17.0134 125.888 17.2161C126.058 17.4189 126.198 17.6603 126.308 17.9306C126.418 18.201 126.488 18.5196 126.518 18.8865H124.52C124.49 18.6837 124.45 18.5099 124.38 18.3748Z" fill="white"/>
<path d="M140.334 22.6014C140.344 22.7366 140.394 22.8525 140.434 22.92C140.474 23.0166 140.514 23.0649 140.574 23.1035C140.634 23.1421 140.674 23.1711 140.744 23.1807V23.48H138.616L138.506 23.1421C138.446 23.0069 138.436 22.8428 138.436 22.6497L138.007 23.0649C137.857 23.1904 137.697 23.2966 137.517 23.3835C137.337 23.48 137.137 23.5573 136.908 23.6152C136.668 23.6732 136.398 23.6925 136.078 23.6925C135.749 23.6925 135.439 23.6538 135.159 23.5573C134.88 23.4607 134.65 23.3159 134.44 23.1421C134.25 22.9587 134.08 22.7269 133.971 22.4469C133.861 22.1766 133.801 21.858 133.801 21.4911C133.801 21.1918 133.841 20.9311 133.941 20.6704C134.041 20.4194 134.18 20.1973 134.34 20.0138C134.52 19.8304 134.73 19.6663 134.98 19.5407C135.229 19.4056 135.509 19.3283 135.829 19.2897L137.707 19.0194C137.777 19.0097 137.847 19.0097 137.927 18.9807C138.007 18.9711 138.076 18.9421 138.146 18.8842C138.216 18.8456 138.266 18.7876 138.316 18.7201C138.356 18.6428 138.386 18.5463 138.386 18.4208C138.386 18.3049 138.356 18.189 138.336 18.1021C138.296 17.9959 138.226 17.9187 138.146 17.8511C138.047 17.7739 137.937 17.7159 137.787 17.6773C137.637 17.6387 137.437 17.6194 137.217 17.6194C136.958 17.6194 136.758 17.6483 136.608 17.687C136.438 17.7449 136.318 17.8221 136.228 17.8994C136.128 17.9959 136.059 18.1021 136.019 18.2083L135.939 18.5945H134.021C134.021 18.5173 134.041 18.3918 134.061 18.2276C134.09 18.0828 134.14 17.909 134.23 17.7159C134.3 17.5421 134.42 17.349 134.56 17.1656C134.7 16.9821 134.88 16.7987 135.129 16.6442C135.349 16.4994 135.639 16.3642 135.979 16.2677C136.308 16.1711 136.698 16.1228 137.167 16.1035C137.817 16.1035 138.366 16.1711 138.776 16.287C139.175 16.4221 139.495 16.5959 139.735 16.7987C139.955 17.0111 140.114 17.2428 140.194 17.4939C140.264 17.7449 140.304 18.0056 140.304 18.2566V22.0414C140.294 22.2925 140.304 22.4663 140.334 22.6014ZM138.027 20.1587C137.907 20.2166 137.747 20.2649 137.557 20.2938L137.048 20.3904C136.828 20.429 136.628 20.4676 136.468 20.5256C136.308 20.5835 136.158 20.6511 136.049 20.7283C135.939 20.8249 135.859 20.9311 135.799 21.047C135.739 21.1725 135.719 21.3173 135.719 21.5007C135.719 21.6456 135.749 21.7807 135.789 21.8869C135.849 22.0125 135.909 22.0897 136.009 22.1669C136.088 22.2345 136.188 22.3021 136.298 22.3311C136.418 22.3697 136.548 22.389 136.688 22.389C136.758 22.389 136.858 22.3794 136.968 22.3601C137.077 22.3504 137.187 22.3214 137.327 22.2828C137.457 22.2249 137.577 22.1766 137.707 22.0994C137.827 22.0318 137.947 21.9256 138.037 21.8001C138.146 21.6745 138.226 21.5297 138.286 21.3463C138.336 21.1725 138.386 20.9697 138.386 20.7283V20.0042C138.266 20.0621 138.136 20.1201 138.027 20.1587Z" fill="white"/>
<path d="M151.295 17.852L151.265 19.1844C151.235 19.9375 151.185 20.5941 151.115 21.1541C151.035 21.7141 150.905 22.1872 150.735 22.5637C150.555 22.9403 150.316 23.2203 150.026 23.423C149.736 23.6161 149.347 23.703 148.887 23.703C148.667 23.703 148.487 23.6934 148.318 23.6741C148.148 23.6451 148.028 23.6065 147.918 23.5679V22.0134C147.988 22.0424 148.068 22.0713 148.168 22.0906C148.268 22.1003 148.377 22.1196 148.517 22.1196C148.667 22.1196 148.797 22.081 148.907 21.9844C149.017 21.9072 149.117 21.7527 149.197 21.5306C149.277 21.2989 149.337 20.9899 149.386 20.5941C149.426 20.1886 149.456 19.6768 149.466 19.0493L149.526 16.3555H155.47V23.5003H153.562V17.8617H151.295V17.852Z" fill="white"/>
<path d="M163.701 18.4037C163.871 17.9306 164.121 17.5348 164.45 17.1968C164.78 16.8589 165.17 16.6079 165.649 16.4148C166.119 16.2313 166.638 16.1348 167.218 16.1348C167.817 16.1348 168.346 16.2313 168.816 16.4148C169.286 16.6079 169.675 16.8589 169.995 17.1968C170.314 17.5348 170.564 17.9403 170.744 18.4037C170.914 18.8575 170.994 19.3692 170.994 19.9196C170.994 20.4699 170.914 20.9817 170.744 21.4354C170.564 21.9085 170.314 22.3044 169.995 22.6423C169.675 22.961 169.286 23.2313 168.816 23.4244C168.346 23.6175 167.817 23.7044 167.218 23.7044C166.638 23.7044 166.119 23.6079 165.649 23.4244C165.18 23.241 164.79 22.9706 164.45 22.6423C164.121 22.3044 163.871 21.9085 163.701 21.4354C163.531 20.9817 163.441 20.4699 163.441 19.9196C163.441 19.3692 163.541 18.8575 163.701 18.4037ZM165.539 20.7113C165.599 20.9817 165.689 21.223 165.849 21.4258C165.989 21.6382 166.169 21.812 166.388 21.9375C166.608 22.063 166.888 22.121 167.218 22.121C167.567 22.121 167.857 22.0534 168.077 21.9375C168.297 21.812 168.476 21.6382 168.616 21.4451C168.756 21.2423 168.856 21.0203 168.906 20.7499C168.966 20.4796 168.986 20.2092 168.986 19.9292C168.986 19.6492 168.956 19.3789 168.906 19.1086C168.856 18.8382 168.756 18.5968 168.616 18.3941C168.476 18.1913 168.297 18.0272 168.077 17.9017C167.857 17.7761 167.567 17.7279 167.218 17.7279C166.888 17.7279 166.608 17.7955 166.388 17.9113C166.169 18.0368 165.989 18.2106 165.849 18.4037C165.699 18.6161 165.599 18.8479 165.539 19.1182C165.489 19.3886 165.439 19.6589 165.439 19.9196C165.439 20.1803 165.479 20.4603 165.539 20.7113Z" fill="white"/>
<path d="M183.509 18.9236V16.3457H185.427V23.4905H183.509V20.4298H180.692V23.4905H178.773V16.3457H180.692V18.9236H183.509Z" fill="white"/>
<path d="M124.939 32.4609H127.497L124.44 35.4251L127.616 39.5961H125.119L122.951 36.574L122.172 37.3368V39.6058H120.254V32.4609H122.172V35.174L124.939 32.4609Z" fill="white"/>
<path d="M136.889 33.486C137.009 33.2736 137.149 33.0805 137.309 32.926C137.449 32.7811 137.618 32.646 137.778 32.5494C137.958 32.4529 138.158 32.3756 138.378 32.337C138.587 32.2791 138.827 32.2598 139.097 32.2598C139.317 32.2598 139.556 32.2887 139.796 32.337C140.036 32.3949 140.266 32.4722 140.506 32.588C140.725 32.6942 140.945 32.8584 141.145 33.0322C141.355 33.2156 141.534 33.457 141.684 33.7273C141.834 33.9977 141.964 34.3067 142.044 34.6639C142.144 35.0308 142.184 35.4267 142.184 35.8998C142.184 36.4791 142.124 37.0101 141.994 37.4832C141.874 37.966 141.674 38.3811 141.415 38.7287C141.155 39.0666 140.835 39.337 140.446 39.5301C140.046 39.7232 139.586 39.8101 139.047 39.8101C138.867 39.8101 138.667 39.8004 138.488 39.7522C138.288 39.7232 138.108 39.6556 137.928 39.5784C137.738 39.5011 137.568 39.3756 137.419 39.2404C137.249 39.0956 137.109 38.9218 136.989 38.6997H136.959V42.3494H135.041V32.4625H136.879V33.486H136.889ZM137.748 34.1039C137.539 34.2391 137.369 34.4032 137.249 34.5963C137.109 34.7991 137.029 35.0211 136.959 35.2818C136.909 35.5329 136.879 35.7742 136.879 36.0349C136.879 36.1701 136.879 36.3149 136.909 36.4791C136.919 36.6432 136.949 36.7977 136.989 36.9618C137.049 37.126 137.099 37.2804 137.189 37.4349C137.259 37.5991 137.359 37.7342 137.479 37.8501C137.608 37.9563 137.758 38.0529 137.918 38.1301C138.088 38.1977 138.298 38.2363 138.528 38.2363C138.757 38.2363 138.967 38.1977 139.137 38.1301C139.307 38.0529 139.457 37.9563 139.576 37.8501C139.686 37.7246 139.796 37.5991 139.886 37.4349C139.956 37.2901 140.006 37.126 140.066 36.9618C140.106 36.7977 140.136 36.6432 140.166 36.4791C140.176 36.3149 140.176 36.1701 140.176 36.0349C140.176 35.7839 140.146 35.5425 140.096 35.2818C140.026 35.0308 139.946 34.7991 139.816 34.5963C139.676 34.3936 139.507 34.2294 139.307 34.1039C139.087 33.9784 138.837 33.9205 138.528 33.9205C138.218 33.9108 137.958 33.9784 137.748 34.1039Z" fill="white"/>
<path d="M155.979 38.7187C155.989 38.8539 156.029 38.9698 156.079 39.0373C156.119 39.1339 156.159 39.1822 156.219 39.2208C156.278 39.2594 156.318 39.2884 156.388 39.298V39.607H154.26L154.151 39.2691C154.091 39.1339 154.081 38.9698 154.081 38.7767L153.651 39.1918C153.501 39.3173 153.341 39.4235 153.162 39.5104C152.982 39.607 152.782 39.6842 152.552 39.7422C152.312 39.8001 152.043 39.8194 151.723 39.8194C151.393 39.8194 151.084 39.7808 150.804 39.6842C150.524 39.5877 150.294 39.4429 150.085 39.2691C149.895 39.0856 149.725 38.8539 149.615 38.5739C149.505 38.3036 149.445 37.9849 149.445 37.618C149.445 37.3187 149.485 37.058 149.585 36.7973C149.685 36.5367 149.825 36.3242 149.985 36.1408C150.165 35.9574 150.374 35.7932 150.624 35.6677C150.874 35.5325 151.154 35.4553 151.473 35.4167L153.351 35.1463C153.421 35.1367 153.491 35.1367 153.571 35.1077C153.651 35.098 153.721 35.0691 153.791 35.0111C153.861 34.9725 153.911 34.9146 153.961 34.847C154.001 34.7698 154.031 34.6732 154.031 34.5477C154.031 34.4318 154.001 34.316 153.981 34.2291C153.941 34.1229 153.871 34.0456 153.781 33.978C153.681 33.9008 153.571 33.8429 153.421 33.8043C153.271 33.7656 153.072 33.7463 152.852 33.7463C152.592 33.7463 152.392 33.7753 152.243 33.8139C152.073 33.8718 151.953 33.9491 151.863 34.0263C151.763 34.1229 151.693 34.2291 151.653 34.3353L151.573 34.7215H149.655C149.655 34.6443 149.675 34.5187 149.695 34.3546C149.725 34.2098 149.775 34.036 149.865 33.8429C149.935 33.6691 150.055 33.476 150.195 33.2925C150.334 33.1091 150.514 32.9256 150.764 32.7712C150.984 32.6263 151.273 32.4912 151.613 32.3946C151.943 32.2981 152.332 32.2498 152.802 32.2305C153.451 32.2305 154.001 32.2981 154.41 32.4139C154.81 32.5491 155.13 32.7229 155.369 32.9256C155.589 33.1381 155.749 33.3698 155.829 33.6208C155.899 33.8718 155.939 34.1325 155.939 34.3836V38.1684C155.939 38.4098 155.949 38.5836 155.979 38.7187ZM153.671 36.276C153.541 36.3339 153.391 36.3822 153.202 36.4111L152.692 36.5077C152.472 36.5463 152.272 36.5849 152.113 36.6429C151.943 36.7008 151.803 36.7684 151.693 36.8456C151.583 36.9422 151.503 37.0484 151.443 37.1642C151.383 37.2898 151.363 37.4346 151.363 37.618C151.363 37.7629 151.393 37.898 151.433 38.0042C151.493 38.1298 151.563 38.207 151.653 38.2842C151.733 38.3518 151.833 38.4194 151.943 38.4484C152.073 38.487 152.193 38.5063 152.332 38.5063C152.402 38.5063 152.502 38.4967 152.612 38.4773C152.722 38.4677 152.832 38.4387 152.972 38.4001C153.102 38.3422 153.222 38.2939 153.351 38.2167C153.481 38.1491 153.591 38.0429 153.681 37.9173C153.791 37.7918 153.871 37.647 153.931 37.4636C153.991 37.2898 154.031 37.087 154.031 36.8456V36.1215C153.911 36.1794 153.781 36.2373 153.671 36.276Z" fill="white"/>
<path d="M168.255 34.488C168.195 34.3432 168.115 34.2177 168.015 34.1211C167.905 34.0149 167.775 33.9474 167.635 33.8894C167.485 33.8508 167.306 33.8218 167.096 33.8218C166.776 33.8218 166.526 33.8894 166.337 34.0342C166.147 34.1791 165.987 34.3529 165.897 34.5749C165.787 34.8067 165.727 35.048 165.687 35.2991C165.657 35.5501 165.637 35.7915 165.637 36.0232C165.637 36.2549 165.647 36.506 165.677 36.757C165.707 37.0273 165.757 37.2494 165.867 37.4715C165.967 37.6839 166.107 37.877 166.317 38.0122C166.506 38.157 166.776 38.2246 167.106 38.2246C167.326 38.2246 167.525 38.186 167.685 38.0894C167.835 38.0122 167.975 37.906 168.085 37.7805C168.195 37.6453 168.275 37.5101 168.335 37.3653C168.375 37.2301 168.405 37.0949 168.405 36.9791H170.403C170.403 37.1046 170.393 37.2494 170.343 37.4329C170.283 37.6356 170.223 37.8191 170.123 38.0411C170.023 38.2439 169.883 38.4563 169.733 38.6687C169.553 38.8811 169.354 39.0742 169.104 39.2287C168.854 39.4025 168.574 39.5377 168.245 39.6439C167.915 39.7501 167.525 39.808 167.086 39.808C166.526 39.808 166.027 39.7308 165.597 39.5667C165.168 39.3929 164.808 39.1515 164.518 38.8329C164.229 38.5142 164.009 38.1184 163.849 37.6356C163.699 37.1625 163.609 36.6315 163.609 36.0232C163.609 35.4053 163.689 34.8646 163.859 34.4011C164.029 33.9474 164.259 33.5418 164.568 33.2232C164.878 32.9046 165.238 32.6632 165.667 32.4991C166.087 32.3253 166.566 32.248 167.086 32.248C167.306 32.248 167.545 32.277 167.795 32.306C168.035 32.3349 168.265 32.4025 168.504 32.4798C168.744 32.5763 168.964 32.6825 169.184 32.8177C169.394 32.9529 169.583 33.1267 169.763 33.3294C169.933 33.5322 170.073 33.7736 170.183 34.0439C170.293 34.3143 170.363 34.6329 170.393 34.9998H168.395C168.365 34.797 168.325 34.6232 168.255 34.488Z" fill="white"/>
<path d="M178.018 34.517C178.187 34.0439 178.437 33.648 178.767 33.3101C179.096 32.9722 179.486 32.7211 179.966 32.528C180.435 32.3446 180.955 32.248 181.534 32.248C182.133 32.248 182.663 32.3446 183.132 32.528C183.602 32.7211 183.992 32.9722 184.311 33.3101C184.631 33.648 184.881 34.0536 185.06 34.517C185.23 34.9708 185.31 35.4825 185.31 36.0329C185.31 36.5832 185.23 37.0949 185.06 37.5487C184.881 38.0218 184.631 38.4177 184.311 38.7556C183.992 39.0742 183.602 39.3446 183.132 39.5377C182.663 39.7308 182.133 39.8177 181.534 39.8177C180.955 39.8177 180.435 39.7211 179.966 39.5377C179.496 39.3542 179.106 39.0839 178.767 38.7556C178.437 38.4177 178.187 38.0218 178.018 37.5487C177.848 37.0949 177.758 36.5832 177.758 36.0329C177.758 35.4825 177.848 34.9708 178.018 34.517ZM179.846 36.8246C179.906 37.0949 179.996 37.3363 180.155 37.5391C180.295 37.7515 180.475 37.9253 180.695 38.0508C180.915 38.1763 181.194 38.2342 181.524 38.2342C181.874 38.2342 182.163 38.1667 182.383 38.0508C182.603 37.9253 182.783 37.7515 182.923 37.5584C183.062 37.3556 183.162 37.1336 183.212 36.8632C183.272 36.5929 183.292 36.3225 183.292 36.0425C183.292 35.7625 183.262 35.4922 183.212 35.2218C183.152 34.9515 183.062 34.7101 182.923 34.5074C182.783 34.3046 182.603 34.1405 182.383 34.0149C182.163 33.8894 181.874 33.8411 181.524 33.8411C181.194 33.8411 180.915 33.9087 180.695 34.0246C180.475 34.1501 180.295 34.3239 180.155 34.517C180.006 34.7294 179.906 34.9611 179.846 35.2315C179.786 35.5018 179.746 35.7722 179.746 36.0329C179.746 36.2936 179.796 36.5736 179.846 36.8246Z" fill="white"/>
<path d="M198.843 32.4609V33.9671H196.605V39.6058H194.687V33.9671H192.449V32.4609H198.843Z" fill="white"/>
<path d="M210.094 34.952C210.533 34.952 210.953 34.9906 211.313 35.0871C211.672 35.1837 211.962 35.3285 212.212 35.512C212.461 35.6954 212.651 35.9368 212.781 36.2361C212.921 36.5354 212.991 36.883 212.991 37.2789C212.991 37.6458 212.931 37.9547 212.821 38.2058C212.711 38.4761 212.571 38.6885 212.401 38.8527C212.232 39.0458 212.042 39.1616 211.832 39.2678C211.622 39.3644 211.412 39.4416 211.223 39.4802C211.033 39.5382 210.843 39.5768 210.683 39.5864C210.513 39.6058 210.384 39.6058 210.294 39.6058H206.438V32.4609H208.356V34.9423H210.094V34.952ZM210.194 38.1671C210.344 38.1575 210.473 38.0995 210.593 38.032C210.723 37.9644 210.803 37.8678 210.883 37.752C210.953 37.6264 210.993 37.472 210.993 37.2789C210.993 37.0954 210.953 36.9409 210.883 36.8058C210.803 36.6802 210.703 36.5933 210.573 36.5258C210.433 36.4582 210.294 36.4099 210.134 36.3809C209.954 36.352 209.774 36.3423 209.574 36.3423H208.336V38.2058H209.734C209.904 38.2058 210.054 38.1961 210.194 38.1671ZM213.85 39.6058V32.4609H215.768V39.6058H213.85Z" fill="white"/>
</svg>
