<svg width="23" height="21" viewBox="0 0 23 21" fill="none" xmlns="http://www.w3.org/2000/svg">
<path d="M19.0643 17.8692L14.5033 14.7252L16.1306 19.8722L12.8842 15.4822L12.676 20.8558L11.096 15.6958L9.07486 20.7134L9.33192 15.342L5.71725 19.4603L7.78428 14.4591L2.96698 17.2322L6.61923 13.1442L1.12243 14.2708L5.96379 11.538L0.382812 10.8967L5.88938 9.81605L0.828539 7.4751L6.40351 8.16387L2.41151 4.37779L7.4513 6.76116L4.95959 1.94049L8.91777 5.75892L8.19769 0.426347L10.6451 5.26715L11.7748 0L12.4452 5.33833L15.3023 0.707463L14.1244 5.96527L18.3983 2.47181L15.4992 7.07967L20.7276 5.10251L16.4222 8.56002L22.0378 8.31413L16.792 10.2474L22.1866 11.7587L16.5688 11.9579L21.1583 15.0631L15.7773 13.5065L19.0643 17.8692Z" fill="white"/>
</svg>
